<svg width="47" height="47" viewBox="0 0 47 47" fill="none" xmlns="http://www.w3.org/2000/svg">
<g filter="url(#filter0_d)">
<path d="M23.4948 12.9972C19.9142 12.9972 16.9921 15.9193 16.9921 19.5C16.9921 23.0807 19.9142 26.0028 23.4948 26.0028C27.0754 26.0028 29.9974 23.0807 29.9974 19.5C29.9974 15.9193 27.0754 12.9972 23.4948 12.9972ZM42.9978 19.5C42.9978 16.8072 43.0222 14.1388 42.871 11.4508C42.7198 8.3287 42.0075 5.55783 39.7245 3.27479C37.4367 0.986866 34.6707 0.279514 31.5487 0.128287C28.8559 -0.0229405 26.1875 0.00145102 23.4996 0.00145102C20.8069 0.00145102 18.1385 -0.0229405 15.4506 0.128287C12.3285 0.279514 9.55773 0.991745 7.27473 3.27479C4.98685 5.56271 4.27951 8.3287 4.12828 11.4508C3.97706 14.1436 4.00145 16.8121 4.00145 19.5C4.00145 22.1879 3.97706 24.8612 4.12828 27.5492C4.27951 30.6713 4.99173 33.4422 7.27473 35.7252C9.5626 38.0131 12.3285 38.7205 15.4506 38.8717C18.1434 39.0229 20.8117 38.9986 23.4996 38.9986C26.1924 38.9986 28.8608 39.0229 31.5487 38.8717C34.6707 38.7205 37.4415 38.0083 39.7245 35.7252C42.0124 33.4373 42.7198 30.6713 42.871 27.5492C43.0271 24.8612 42.9978 22.1928 42.9978 19.5ZM23.4948 29.5054C17.958 29.5054 13.4896 25.0369 13.4896 19.5C13.4896 13.9631 17.958 9.49461 23.4948 9.49461C29.0315 9.49461 33.5 13.9631 33.5 19.5C33.5 25.0369 29.0315 29.5054 23.4948 29.5054ZM33.9097 11.4215C32.617 11.4215 31.5731 10.3776 31.5731 9.08484C31.5731 7.79209 32.617 6.74813 33.9097 6.74813C35.2025 6.74813 36.2464 7.79209 36.2464 9.08484C36.2468 9.39181 36.1866 9.69584 36.0693 9.97951C35.952 10.2632 35.7799 10.5209 35.5629 10.738C35.3458 10.9551 35.0881 11.1272 34.8044 11.2445C34.5207 11.3617 34.2167 11.4219 33.9097 11.4215Z" fill="#BC0044"/>
</g>
<defs>
<filter id="filter0_d" x="0" y="0" width="47" height="47" filterUnits="userSpaceOnUse" color-interpolation-filters="sRGB">
<feFlood flood-opacity="0" result="BackgroundImageFix"/>
<feColorMatrix in="SourceAlpha" type="matrix" values="0 0 0 0 0 0 0 0 0 0 0 0 0 0 0 0 0 0 127 0"/>
<feOffset dy="4"/>
<feGaussianBlur stdDeviation="2"/>
<feColorMatrix type="matrix" values="0 0 0 0 0.45 0 0 0 0 0 0 0 0 0 0.162 0 0 0 0.25 0"/>
<feBlend mode="normal" in2="BackgroundImageFix" result="effect1_dropShadow"/>
<feBlend mode="normal" in="SourceGraphic" in2="effect1_dropShadow" result="shape"/>
</filter>
</defs>
</svg>
