<svg width="46" height="47" viewBox="0 0 46 47" fill="none" xmlns="http://www.w3.org/2000/svg">
<g filter="url(#filter0_d)">
<path d="M11.4507 0.0101776C7.3574 0.0101776 4.00732 3.44834 4.00732 7.64938V31.3552C4.00732 35.5561 7.35733 38.9931 11.4507 38.9931H34.5486C38.6419 38.9931 41.9907 35.5562 41.9907 31.3552V7.64938C41.9907 3.44842 38.6419 0.0101776 34.5486 0.0101776H11.4507ZM13.3228 6.44315C15.2854 6.44315 16.4943 7.76548 16.5316 9.50367C16.5316 11.2035 15.2853 12.563 13.2848 12.563H13.248C11.3227 12.563 10.0783 11.2036 10.0783 9.50367C10.0783 7.76552 11.3604 6.44315 13.3227 6.44315H13.3228ZM30.2358 14.5672C34.0103 14.5672 36.8398 17.0992 36.8398 22.5402V32.6978H31.1036V23.2213C31.1036 20.8399 30.2734 19.2153 28.1975 19.2153C26.6128 19.2153 25.6682 20.3103 25.2534 21.3681C25.1019 21.7466 25.0647 22.2752 25.0647 22.8046V32.6978H19.3285C19.3285 32.6978 19.4037 16.6448 19.3285 14.9827H25.0659V17.4913C25.8281 16.2843 27.1917 14.5672 30.2358 14.5672V14.5672ZM10.4167 14.984H16.1529V32.6978H10.4167V14.984Z" fill="#22398C"/>
</g>
<defs>
<filter id="filter0_d" x="0" y="0" width="46" height="47" filterUnits="userSpaceOnUse" color-interpolation-filters="sRGB">
<feFlood flood-opacity="0" result="BackgroundImageFix"/>
<feColorMatrix in="SourceAlpha" type="matrix" values="0 0 0 0 0 0 0 0 0 0 0 0 0 0 0 0 0 0 127 0"/>
<feOffset dy="4"/>
<feGaussianBlur stdDeviation="2"/>
<feColorMatrix type="matrix" values="0 0 0 0 0.132917 0 0 0 0 0.224675 0 0 0 0 0.55 0 0 0 0.33 0"/>
<feBlend mode="normal" in2="BackgroundImageFix" result="effect1_dropShadow"/>
<feBlend mode="normal" in="SourceGraphic" in2="effect1_dropShadow" result="shape"/>
</filter>
</defs>
</svg>
